<svg width="22" height="19" viewBox="0 0 22 19" fill="none" xmlns="http://www.w3.org/2000/svg">
<path fill-rule="evenodd" clip-rule="evenodd" d="M13.8489 2.65811C13.3921 2.65792 12.9409 2.75916 12.5279 2.95453C12.115 3.14989 11.7506 3.43451 11.4609 3.78783C11.1713 4.14115 10.9638 4.55436 10.8533 4.99764C10.7428 5.44091 10.7321 5.9032 10.8219 6.35111C10.8529 6.50631 10.8465 6.66664 10.8035 6.81891C10.7604 6.97118 10.6817 7.11105 10.5741 7.22702C10.4664 7.343 10.3327 7.43176 10.1841 7.48601C10.0354 7.54027 9.876 7.55847 9.71894 7.53911C7.56867 7.27497 5.54166 6.39107 3.88494 4.99511C3.91594 5.59711 4.12494 6.23711 4.57794 6.90711L5.25694 7.91111L4.14194 8.38611L3.92694 8.47811C4.08694 8.66111 4.27894 8.84811 4.49394 9.03311C4.78135 9.27912 5.08541 9.50499 5.40394 9.70911L5.41494 9.71611H5.41594L6.96394 10.6551L5.34394 11.4651C5.26394 11.5051 5.18394 11.5411 5.10394 11.5731C5.45228 11.8626 5.83602 12.1065 6.24594 12.2991L7.63594 12.9561L6.47194 13.9601C5.83694 14.5081 5.19794 14.9171 4.36894 15.1331C5.64037 15.8104 7.05938 16.1631 8.49994 16.1601C13.3059 16.1601 17.1759 12.3251 17.1759 7.62611V7.10611L17.6009 6.80711C18.2649 6.34111 18.7339 5.71111 19.0699 4.99011H16.9099L16.6379 4.42011C16.3875 3.89278 15.9926 3.44731 15.4991 3.13542C15.0056 2.82354 14.4337 2.65803 13.8499 2.65811H13.8489ZM2.56894 9.95811C2.47457 10.0662 2.40457 10.1933 2.36367 10.3308C2.32278 10.4683 2.31196 10.613 2.33194 10.7551C2.44494 11.5561 2.92394 12.2461 3.45394 12.7731C3.59794 12.9161 3.75194 13.0531 3.91394 13.1841L3.83894 13.2041C3.35794 13.3241 2.70894 13.3491 1.62794 13.2441C1.4238 13.2241 1.21843 13.2673 1.03969 13.3679C0.860951 13.4686 0.717478 13.6217 0.628726 13.8067C0.539975 13.9916 0.510238 14.1993 0.543548 14.4017C0.576858 14.6041 0.671603 14.7914 0.814938 14.9381C1.81571 15.961 3.01123 16.7731 4.33096 17.3265C5.65069 17.8799 7.06789 18.1633 8.49894 18.1601C14.2119 18.1601 18.8979 13.7241 19.1629 8.12611C20.4529 7.04311 21.0979 5.57611 21.4459 4.24311C21.4846 4.09516 21.4889 3.94031 21.4583 3.79047C21.4278 3.64062 21.3633 3.49977 21.2698 3.37876C21.1763 3.25774 21.0563 3.15978 20.9191 3.0924C20.7818 3.02502 20.6309 2.99003 20.4779 2.99011H18.1249C17.5494 2.09644 16.7083 1.40555 15.7198 1.01455C14.7314 0.623539 13.6453 0.552062 12.6141 0.810158C11.5829 1.06825 10.6585 1.64295 9.97082 2.45349C9.28311 3.26403 8.86664 4.26968 8.77994 5.32911C6.93659 4.84926 5.28727 3.80992 4.05894 2.35411C3.95016 2.2255 3.81065 2.12644 3.65336 2.06614C3.49607 2.00585 3.32609 1.98626 3.15921 2.0092C2.99233 2.03215 2.83395 2.09687 2.69876 2.19738C2.56358 2.29788 2.45598 2.43091 2.38594 2.58411C1.77994 3.90611 1.66394 5.43011 2.33994 6.98011L2.10594 7.08011C1.88201 7.17553 1.70058 7.34934 1.59564 7.56897C1.49071 7.7886 1.46948 8.03895 1.53594 8.27311C1.72194 8.92511 2.13994 9.50111 2.56794 9.95811H2.56894Z" fill="currentColor"/>
</svg>
